<svg width="759" height="678" viewBox="0 0 759 678" fill="none" xmlns="http://www.w3.org/2000/svg">
<g clip-path="url(#clip0_429_19)">
<path d="M356.573 388.344L356.637 388.345C358.742 388.356 360.845 388.367 362.887 388.377C368.475 388.379 374.111 388.379 379.749 388.4H379.761C385.579 388.425 391.375 388.445 397.162 388.445C401.761 388.444 406.364 388.447 410.969 388.456H410.975C412.097 388.459 413.202 388.461 414.299 388.464C415.392 388.467 416.477 388.468 417.562 388.471C443.54 388.491 476.331 386.904 503.559 407.928L504.851 408.947L505.52 409.709L504.686 408.816L508.274 412.656C516.747 420.426 528.057 442.771 531.475 456.784C534.707 470.031 533.973 484.534 533.822 504.885C533.804 508.318 533.791 511.752 533.785 515.186C533.777 524.307 533.757 533.431 533.72 542.558C533.681 551.972 533.658 561.39 533.641 570.814C533.604 591.134 533.542 611.452 533.465 631.767L533.402 648.763H483.497C483.456 649.13 483.414 649.505 483.371 649.896C483.008 653.208 482.642 656.527 482.273 659.848C482.003 662.272 481.733 664.697 481.466 667.121L481.467 667.122L479.267 687.024C478.64 692.675 478.013 698.326 477.388 703.977C475.914 717.313 474.437 730.65 472.957 743.988C471.427 757.776 469.9 771.563 468.377 785.349C467.059 797.288 465.739 809.226 464.415 821.165C463.624 828.304 462.833 835.437 462.045 842.57C458.534 874.383 454.884 906.285 450.63 938.193L448.656 953H331.772L329.171 939.069C328.298 934.399 327.357 929.268 326.685 924.007L326.667 923.866L326.651 923.724C326.439 921.819 326.234 919.966 326.029 918.117C325.658 914.796 325.288 911.466 324.921 908.134C324.654 905.71 324.385 903.285 324.116 900.861C323.377 894.225 322.641 887.585 321.908 880.947C321.127 873.868 320.343 866.789 319.558 859.708L315.606 823.997C314.084 810.21 312.558 796.424 311.029 782.64C309.542 769.245 308.058 755.848 306.576 742.45C305.948 736.767 305.32 731.088 304.69 725.409L302.539 706.051C300.433 687.039 298.366 667.916 296.591 648.763H246.226L246.194 631.735C246.16 613.215 246.13 594.692 246.112 576.167C246.103 566.715 246.096 557.274 246.079 547.834C246.06 538.585 246.044 529.328 246.037 520.069V520.064C246.036 516.55 246.033 513.036 246.03 509.522C246.016 504.465 246.003 499.384 246.002 494.3V494.294C246.002 492.728 246.003 491.208 246.003 489.689C245.906 466.787 248.081 443.038 267.062 420.426L267.566 419.826L268.121 419.274C293.804 393.829 324.113 388.42 356.507 388.344H356.573ZM397.163 405.506C391.337 405.506 385.512 405.485 379.686 405.459C376.871 405.448 374.056 405.444 371.242 405.441L362.798 405.438C360.735 405.427 358.672 405.416 356.547 405.405C326.067 405.476 301.186 410.542 280.144 431.388C265.125 449.28 262.986 467.932 263.078 489.616L263.077 494.297C263.078 499.357 263.091 504.418 263.105 509.478C263.108 513.004 263.111 516.53 263.112 520.056C263.119 529.304 263.135 538.552 263.153 547.8C263.171 557.25 263.178 566.701 263.187 576.151C263.205 594.668 263.234 613.185 263.269 631.703H312.206C312.628 636.432 313.05 641.162 313.484 646.034C315.865 671.894 318.794 697.709 321.66 723.528C322.291 729.211 322.919 734.895 323.548 740.578C325.029 753.972 326.514 767.366 328 780.76C329.53 794.548 331.055 808.336 332.578 822.125C333.892 834.026 335.209 845.928 336.529 857.829C337.314 864.911 338.099 871.994 338.881 879.077C339.613 885.711 340.349 892.345 341.087 898.978C341.357 901.408 341.626 903.838 341.893 906.268C342.259 909.587 342.629 912.907 342.999 916.225C343.205 918.08 343.41 919.936 343.622 921.847C344.225 926.565 345.081 931.256 345.955 935.939H433.704C437.403 908.191 440.648 880.416 443.751 852.615L445.073 840.698C445.861 833.561 446.653 826.424 447.444 819.287L451.406 783.478C452.929 769.687 454.456 755.897 455.987 742.107L464.494 665.256C464.763 662.825 465.032 660.394 465.302 657.963L466.399 648.024C466.604 646.17 466.809 644.316 467.02 642.406C467.547 637.51 467.546 637.509 467.453 631.703H516.39C516.428 621.549 516.464 611.396 516.494 601.243L516.566 570.781C516.575 566.066 516.585 561.351 516.598 556.635L516.646 542.489C516.664 537.934 516.677 533.379 516.688 528.823L516.712 515.156C516.718 511.69 516.729 508.224 516.747 504.759C517.072 461.056 507.6 441.879 496.413 425.413C485.227 408.947 445.727 405.555 417.535 405.532L410.935 405.517L397.163 405.506ZM348.099 254.567C371.372 233.192 404.605 235.609 427.321 251.055L428.395 251.8L429.601 252.654L430.643 253.704C446.322 269.505 449.515 286.988 449.47 304.327V304.442L449.468 304.558C449.452 305.539 449.445 306.03 449.437 306.516C449.43 306.976 449.422 307.432 449.408 308.296C449.404 318.147 449.918 333.454 441.855 347.849L441.576 348.346L441.263 348.825C432.537 362.215 421.283 371.07 404.353 375.58L402.97 375.949L401.545 376.082C383.434 377.775 367.574 375.531 351.266 363.974L350.059 363.12L349.018 362.07C333.338 346.269 330.146 328.786 330.19 311.447V311.332L330.192 311.216C330.213 309.923 330.232 308.688 330.252 307.433C330.274 290.887 331.635 273.16 346.821 255.873L347.425 255.186L348.099 254.567ZM418.517 265.715C400.855 253.2 376.11 252.013 359.653 267.128C348.641 279.663 347.34 292.127 347.327 307.604L347.265 311.491C347.227 326.357 349.841 338.668 361.143 350.058C373.239 358.63 384.688 360.522 399.954 359.095C412.579 355.732 420.398 349.576 426.954 339.515C431.802 330.861 432.278 321.637 432.327 312.217L432.333 308.17C432.364 306.246 432.364 306.246 432.396 304.283C432.434 289.417 429.819 277.105 418.517 265.715Z" fill="black"/>
</g>
<defs>
<clipPath id="clip0_429_19">
<rect width="759" height="678" fill="white"/>
</clipPath>
</defs>
</svg>
